<svg width="16" height="16" viewBox="0 0 16 16" fill="none" xmlns="http://www.w3.org/2000/svg">
<path d="M1.37987e-06 8C9.93608e-07 12.4183 3.58172 16 8 16C12.4183 16 16 12.4183 16 8C16 3.58172 12.4183 -3.13124e-07 8 -6.99382e-07C3.58172 -1.08564e-06 1.76612e-06 3.58172 1.37987e-06 8Z" fill="#5D999A"/>
<path fill-rule="evenodd" clip-rule="evenodd" d="M11.1035 8.21342C11.1035 8.21342 9.69851 8.19911 8.30074 7.85798C7.53107 7.82663 7.20858 8.0618 6.6006 8.50514C6.43131 8.6286 6.23988 8.76819 6.0105 8.92267C5.54535 9.18822 5.106 9.12859 4.10956 8.77297C3.49595 8.60268 2.96019 10.9486 4.64981 12.066C4.96167 12.2722 5.51425 12.3734 6.09722 12.4801C6.81227 12.611 7.57304 12.7502 7.99147 13.102C8.75103 13.7407 8.75792 14.6698 7.77632 14.9401C6.79473 15.2105 5.51711 14.5739 3.83623 12.8536C2.15535 11.1333 1.51885 8.92267 2.38858 6.4039C3.9714 2.70819 6.21982 2.7087 9.24572 2.70939C9.2876 2.7094 9.32962 2.70941 9.37179 2.70941C9.94631 2.25613 10.8118 1.90631 11.0119 2.02248C11.1703 2.11441 11.1728 2.28378 11.1759 2.4885C11.1766 2.54247 11.1775 2.59891 11.1812 2.65703C11.1994 2.94042 11.1495 3.38348 11.1495 3.38348L12.4617 4.14501C12.4617 4.14501 12.8509 3.81777 13.0975 3.70946C13.1384 3.69148 13.1766 3.67345 13.213 3.65633C13.4017 3.56741 13.5385 3.50296 13.7254 3.59714C13.9483 3.70946 14.3387 4.69792 13.4102 6.5725C12.4817 8.44708 11.1035 8.21342 11.1035 8.21342ZM10.4864 5.61793C10.5017 5.72004 10.6068 5.78195 10.703 5.74549L10.7778 5.71709C10.9047 5.66894 10.9195 5.49438 10.8024 5.42543L10.7156 5.3743C10.5986 5.30535 10.4543 5.40356 10.4745 5.53841L10.4864 5.61793Z" fill="white"/>
</svg>
