<svg width="142" height="39" viewBox="0 0 142 39" fill="none" xmlns="http://www.w3.org/2000/svg">
<path d="M54.14 21.8V26.98C54.02 27.02 53.8467 27.0533 53.62 27.08C53.4067 27.12 53.1733 27.14 52.92 27.14C52.4133 27.14 52.0533 27.0533 51.84 26.88C51.64 26.6933 51.54 26.3733 51.54 25.92V14.86C51.6467 14.8333 51.8133 14.8 52.04 14.76C52.28 14.72 52.5133 14.7 52.74 14.7C53.22 14.7 53.5733 14.7867 53.8 14.96C54.0267 15.1333 54.14 15.4533 54.14 15.92V20.04L58.94 14.76C59.58 14.76 60.04 14.8867 60.32 15.14C60.6133 15.3933 60.76 15.6933 60.76 16.04C60.76 16.32 60.6867 16.5733 60.54 16.8C60.4067 17.0133 60.2 17.26 59.92 17.54L56.54 20.9C57.58 21.9667 58.4933 22.92 59.28 23.76C60.0667 24.6 60.7333 25.2733 61.28 25.78C61.2667 26.22 61.12 26.5667 60.84 26.82C60.5733 27.06 60.2467 27.18 59.86 27.18C59.4733 27.18 59.1467 27.08 58.88 26.88C58.6133 26.6667 58.3533 26.4267 58.1 26.16L54.14 21.8ZM65.5364 27.04C65.1097 27.04 64.7697 26.9133 64.5164 26.66C64.2764 26.4067 64.1564 26.0667 64.1564 25.64V14.86C64.2631 14.8333 64.4297 14.8 64.6564 14.76C64.8964 14.72 65.1297 14.7 65.3564 14.7C65.8364 14.7 66.1897 14.7867 66.4164 14.96C66.6431 15.1333 66.7564 15.4533 66.7564 15.92V24.9H71.8964C71.9631 25.0067 72.0297 25.1533 72.0964 25.34C72.1631 25.5133 72.1964 25.7067 72.1964 25.92C72.1964 26.28 72.1097 26.56 71.9364 26.76C71.7764 26.9467 71.5497 27.04 71.2564 27.04H65.5364ZM85.9877 20.92C85.9877 21.96 85.8343 22.88 85.5277 23.68C85.221 24.48 84.7943 25.1533 84.2477 25.7C83.7143 26.2333 83.0743 26.64 82.3277 26.92C81.581 27.1867 80.7743 27.32 79.9077 27.32C79.041 27.32 78.2343 27.1867 77.4877 26.92C76.741 26.64 76.0943 26.2333 75.5477 25.7C75.0143 25.1533 74.5943 24.48 74.2877 23.68C73.981 22.88 73.8277 21.96 73.8277 20.92C73.8277 19.88 73.981 18.9667 74.2877 18.18C74.6077 17.38 75.041 16.7133 75.5877 16.18C76.1343 15.6333 76.7743 15.2267 77.5077 14.96C78.2543 14.68 79.0543 14.54 79.9077 14.54C80.761 14.54 81.5543 14.68 82.2877 14.96C83.0343 15.2267 83.681 15.6333 84.2277 16.18C84.7743 16.7133 85.201 17.38 85.5077 18.18C85.8277 18.9667 85.9877 19.88 85.9877 20.92ZM83.3277 20.92C83.3277 19.5333 83.0143 18.48 82.3877 17.76C81.7743 17.0267 80.9477 16.66 79.9077 16.66C78.881 16.66 78.0543 17.02 77.4277 17.74C76.8143 18.46 76.5077 19.52 76.5077 20.92C76.5077 22.32 76.8143 23.38 77.4277 24.1C78.041 24.82 78.8677 25.18 79.9077 25.18C80.9477 25.18 81.7743 24.82 82.3877 24.1C83.0143 23.38 83.3277 22.32 83.3277 20.92ZM100.713 20.92C100.713 21.96 100.56 22.88 100.253 23.68C99.9468 24.48 99.5201 25.1533 98.9734 25.7C98.4401 26.2333 97.8001 26.64 97.0534 26.92C96.3068 27.1867 95.5001 27.32 94.6334 27.32C93.7668 27.32 92.9601 27.1867 92.2134 26.92C91.4668 26.64 90.8201 26.2333 90.2734 25.7C89.7401 25.1533 89.3201 24.48 89.0134 23.68C88.7068 22.88 88.5534 21.96 88.5534 20.92C88.5534 19.88 88.7068 18.9667 89.0134 18.18C89.3334 17.38 89.7668 16.7133 90.3134 16.18C90.8601 15.6333 91.5001 15.2267 92.2334 14.96C92.9801 14.68 93.7801 14.54 94.6334 14.54C95.4868 14.54 96.2801 14.68 97.0134 14.96C97.7601 15.2267 98.4068 15.6333 98.9534 16.18C99.5001 16.7133 99.9268 17.38 100.233 18.18C100.553 18.9667 100.713 19.88 100.713 20.92ZM98.0534 20.92C98.0534 19.5333 97.7401 18.48 97.1134 17.76C96.5001 17.0267 95.6734 16.66 94.6334 16.66C93.6068 16.66 92.7801 17.02 92.1534 17.74C91.5401 18.46 91.2334 19.52 91.2334 20.92C91.2334 22.32 91.5401 23.38 92.1534 24.1C92.7668 24.82 93.5934 25.18 94.6334 25.18C95.6734 25.18 96.5001 24.82 97.1134 24.1C97.7401 23.38 98.0534 22.32 98.0534 20.92ZM113.219 17.98C113.219 18.58 113.059 19.1 112.739 19.54C112.433 19.98 111.966 20.3333 111.339 20.6C112.113 20.8533 112.693 21.2333 113.079 21.74C113.466 22.2467 113.659 22.8467 113.659 23.54C113.659 24.8067 113.199 25.7467 112.279 26.36C111.359 26.9733 110.026 27.28 108.279 27.28C108.026 27.28 107.753 27.2733 107.459 27.26C107.179 27.2467 106.893 27.22 106.599 27.18C106.306 27.1533 106.013 27.1067 105.719 27.04C105.426 26.9867 105.153 26.92 104.899 26.84C104.259 26.6267 103.939 26.2333 103.939 25.66V15.88C103.939 15.6267 104.006 15.4333 104.139 15.3C104.273 15.1667 104.459 15.06 104.699 14.98C105.153 14.8333 105.679 14.7333 106.279 14.68C106.879 14.6133 107.506 14.58 108.159 14.58C109.773 14.58 111.019 14.86 111.899 15.42C112.779 15.9667 113.219 16.82 113.219 17.98ZM111.019 23.44C111.019 22.9067 110.826 22.4867 110.439 22.18C110.066 21.8733 109.519 21.72 108.799 21.72H106.459V25.06C106.713 25.1267 107.013 25.1733 107.359 25.2C107.719 25.2267 108.073 25.24 108.419 25.24C109.233 25.24 109.866 25.1 110.319 24.82C110.786 24.5267 111.019 24.0667 111.019 23.44ZM106.459 19.82H108.479C109.199 19.82 109.733 19.6733 110.079 19.38C110.439 19.0867 110.619 18.68 110.619 18.16C110.619 17.1067 109.806 16.58 108.179 16.58C107.846 16.58 107.526 16.5933 107.219 16.62C106.926 16.6467 106.673 16.68 106.459 16.72V19.82ZM128.427 20.92C128.427 21.96 128.273 22.88 127.967 23.68C127.66 24.48 127.233 25.1533 126.687 25.7C126.153 26.2333 125.513 26.64 124.767 26.92C124.02 27.1867 123.213 27.32 122.347 27.32C121.48 27.32 120.673 27.1867 119.927 26.92C119.18 26.64 118.533 26.2333 117.987 25.7C117.453 25.1533 117.033 24.48 116.727 23.68C116.42 22.88 116.267 21.96 116.267 20.92C116.267 19.88 116.42 18.9667 116.727 18.18C117.047 17.38 117.48 16.7133 118.027 16.18C118.573 15.6333 119.213 15.2267 119.947 14.96C120.693 14.68 121.493 14.54 122.347 14.54C123.2 14.54 123.993 14.68 124.727 14.96C125.473 15.2267 126.12 15.6333 126.667 16.18C127.213 16.7133 127.64 17.38 127.947 18.18C128.267 18.9667 128.427 19.88 128.427 20.92ZM125.767 20.92C125.767 19.5333 125.453 18.48 124.827 17.76C124.213 17.0267 123.387 16.66 122.347 16.66C121.32 16.66 120.493 17.02 119.867 17.74C119.253 18.46 118.947 19.52 118.947 20.92C118.947 22.32 119.253 23.38 119.867 24.1C120.48 24.82 121.307 25.18 122.347 25.18C123.387 25.18 124.213 24.82 124.827 24.1C125.453 23.38 125.767 22.32 125.767 20.92ZM134.253 21.8V26.98C134.133 27.02 133.959 27.0533 133.733 27.08C133.519 27.12 133.286 27.14 133.033 27.14C132.526 27.14 132.166 27.0533 131.953 26.88C131.753 26.6933 131.653 26.3733 131.653 25.92V14.86C131.759 14.8333 131.926 14.8 132.153 14.76C132.393 14.72 132.626 14.7 132.853 14.7C133.333 14.7 133.686 14.7867 133.913 14.96C134.139 15.1333 134.253 15.4533 134.253 15.92V20.04L139.053 14.76C139.693 14.76 140.153 14.8867 140.433 15.14C140.726 15.3933 140.873 15.6933 140.873 16.04C140.873 16.32 140.799 16.5733 140.653 16.8C140.519 17.0133 140.313 17.26 140.033 17.54L136.653 20.9C137.693 21.9667 138.606 22.92 139.393 23.76C140.179 24.6 140.846 25.2733 141.393 25.78C141.379 26.22 141.233 26.5667 140.953 26.82C140.686 27.06 140.359 27.18 139.973 27.18C139.586 27.18 139.259 27.08 138.993 26.88C138.726 26.6667 138.466 26.4267 138.213 26.16L134.253 21.8Z" fill="white"/>
<path d="M2.15366e-06 19C1.2363e-06 29.4934 8.50659 38 19 38C29.4934 38 38 29.4934 38 19C38 8.50659 29.4934 -7.4367e-07 19 -1.66103e-06C8.50659 -2.5784e-06 3.07103e-06 8.50659 2.15366e-06 19Z" fill="#5D999A"/>
<path fill-rule="evenodd" clip-rule="evenodd" d="M25.1572 19.3579C25.1572 19.3579 21.8484 19.3244 18.5566 18.5251C16.744 18.4517 15.9846 19.0027 14.5528 20.0414C14.1541 20.3307 13.7032 20.6577 13.163 21.0197C12.0676 21.6419 11.0329 21.5022 8.68631 20.6689C7.24125 20.27 5.97952 25.7665 9.9586 28.3844C10.693 28.8676 11.9944 29.1046 13.3673 29.3546C15.0512 29.6613 16.8429 29.9875 17.8283 30.8118C19.617 32.3081 19.6333 34.4851 17.3216 35.1185C15.0099 35.7518 12.0011 34.2605 8.04261 30.2298C4.08411 26.1991 2.58513 21.0197 4.63337 15.1183C8.36094 6.45931 13.656 6.46051 20.7821 6.46213C20.8807 6.46215 20.9796 6.46217 21.079 6.46217C22.4319 5.40017 24.4701 4.58054 24.9415 4.85271C25.3146 5.0681 25.3205 5.46494 25.3276 5.94459C25.3294 6.07105 25.3314 6.20327 25.3402 6.33944C25.3831 7.00342 25.2654 8.04151 25.2654 8.04151L28.3558 9.82575C28.3558 9.82575 29.2724 9.05905 29.8529 8.80527C29.9493 8.76315 30.0394 8.72091 30.125 8.68079C30.5695 8.47246 30.8917 8.32145 31.3318 8.54212C31.8566 8.80527 32.7761 11.1212 30.5894 15.5133C28.4027 19.9054 25.1572 19.3579 25.1572 19.3579ZM23.7039 13.2768C23.74 13.516 23.9875 13.6611 24.2139 13.5756L24.3901 13.5091C24.6891 13.3963 24.7238 12.9873 24.4481 12.8257L24.2437 12.706C23.9681 12.5444 23.6282 12.7745 23.6758 13.0904L23.7039 13.2768Z" fill="white"/>
<path d="M15.988 21.4634C16.2459 21.7011 15.9834 22.1195 15.6572 21.9908L14.9398 21.7078C14.7555 21.6351 14.6825 21.4128 14.7878 21.2449L14.9381 21.0053C15.0434 20.8374 15.2753 20.8064 15.421 20.9407L15.988 21.4634Z" fill="white"/>
<path fill-rule="evenodd" clip-rule="evenodd" d="M17.9989 20.5376C18.0941 20.5817 18.1356 20.6946 18.0915 20.7899C17.8846 21.2369 17.636 21.9661 17.5639 22.691C17.4909 23.4242 17.6031 24.0968 18.0468 24.4999C18.6139 25.0151 19.3189 25.0041 19.8918 24.561C20.4727 24.1117 20.9295 23.2018 20.8986 21.9095C20.8961 21.8046 20.9791 21.7175 21.084 21.715C21.1889 21.7125 21.276 21.7955 21.2785 21.9004C21.3115 23.2808 20.8239 24.3204 20.1243 24.8616C19.4165 25.409 18.5048 25.4294 17.7913 24.7812C17.2105 24.2535 17.1093 23.4221 17.1857 22.6534C17.263 21.8763 17.5266 21.1056 17.7466 20.6303C17.7907 20.535 17.9036 20.4936 17.9989 20.5376Z" fill="white"/>
<path fill-rule="evenodd" clip-rule="evenodd" d="M25.9132 12.3902C25.996 12.3257 26.1153 12.3405 26.1798 12.4232C26.2172 12.4712 26.2491 12.5275 26.2766 12.5788C26.2888 12.6014 26.2999 12.6226 26.3109 12.6436C26.3278 12.676 26.3446 12.708 26.3649 12.7445C26.4276 12.8576 26.502 12.9728 26.6094 13.0753C26.8155 13.2721 27.1789 13.4557 27.9145 13.3957C28.0191 13.3871 28.1108 13.465 28.1194 13.5696C28.1279 13.6742 28.05 13.7659 27.9455 13.7744C27.1294 13.841 26.6496 13.6391 26.347 13.3501C26.2 13.2098 26.1037 13.0571 26.0325 12.9288C26.011 12.8899 25.9893 12.8487 25.9704 12.8126C25.9599 12.7926 25.9503 12.7742 25.9419 12.7587C25.9152 12.709 25.8961 12.6774 25.8801 12.6568C25.8156 12.5741 25.8304 12.4547 25.9132 12.3902Z" fill="#5D999A"/>
<path fill-rule="evenodd" clip-rule="evenodd" d="M23.6917 11.2666C23.7175 11.1649 23.6559 11.0616 23.5542 11.0358C23.4953 11.0209 23.4309 11.0144 23.3728 11.0097C23.3472 11.0077 23.3234 11.0061 23.2997 11.0044C23.2633 11.0019 23.2272 10.9994 23.1856 10.9956C23.0569 10.9837 22.9215 10.9619 22.7844 10.9048C22.5214 10.7952 22.2071 10.5363 21.9662 9.83866C21.932 9.73947 21.8238 9.68682 21.7246 9.72106C21.6254 9.75531 21.5728 9.86348 21.607 9.96266C21.8742 10.7366 22.2521 11.0947 22.6383 11.2556C22.8259 11.3337 23.0045 11.3605 23.1506 11.374C23.1948 11.3781 23.2413 11.3813 23.2819 11.3841C23.3044 11.3857 23.3252 11.3872 23.3427 11.3886C23.399 11.393 23.4356 11.3978 23.4608 11.4042C23.5626 11.4299 23.6659 11.3684 23.6917 11.2666Z" fill="#5D999A"/>
</svg>
