<svg width="399" height="255" viewBox="0 0 399 255" fill="none" xmlns="http://www.w3.org/2000/svg">
<path d="M53.8051 117.482C53.8051 149.491 79.7538 175.44 111.763 175.44C143.772 175.44 169.721 149.491 169.721 117.482C169.721 85.4724 143.772 59.5237 111.763 59.5237C79.7538 59.5237 53.8051 85.4724 53.8051 117.482Z" fill="#476F6E"/>
<path d="M138.743 216.074C84.1464 227.602 30.9582 194.66 19.9436 142.494C8.92906 90.3294 44.2592 38.696 98.8557 27.1681M19.9436 142.494C8.92906 90.3294 44.2592 38.696 98.8557 27.1681" stroke="#476F6E" stroke-width="3"/>
<path d="M98.8557 27.1682C143.776 17.6832 174.936 39.863 188.102 65.4615" stroke="#476F6E" stroke-width="3" stroke-linecap="round"/>
<path d="M137.939 216.244C158.913 208.942 166.843 201.309 168.364 194.766C171.768 180.115 146.505 172.855 134.783 182.281C132.53 184.093 130.426 186.523 128.566 189.747C124.407 198.894 122.832 208.185 127.601 218.238C134.029 231.791 148.606 229.905 161.522 228.774C186.699 226.569 208.572 212.491 232.913 207.075C241.411 205.184 250.412 203.272 259.128 204.568C263.412 205.205 266.557 205.934 270.816 205.034" stroke="#476F6E" stroke-width="3" stroke-linecap="round"/>
<path fill-rule="evenodd" clip-rule="evenodd" d="M130.25 118.452C130.24 118.45 130.244 118.451 130.234 118.451C129.915 118.447 120.023 118.309 110.174 115.912C110.162 115.909 110.149 115.908 110.136 115.907C104.634 115.688 102.323 117.37 97.971 120.538C96.7577 121.421 95.3858 122.419 93.7419 123.524C90.4083 125.424 87.2597 124.998 80.1185 122.453C75.721 121.235 71.8813 138.018 83.9903 146.011C86.2253 147.487 90.1854 148.21 94.3634 148.974C99.4879 149.91 104.94 150.906 107.939 153.423C113.382 157.992 113.432 164.639 106.397 166.573C99.3622 168.506 90.2059 163.953 78.1596 151.646C66.1133 139.339 61.5517 123.524 67.7848 105.506C79.1284 79.067 95.242 79.0707 116.928 79.0756C117.206 79.0757 117.485 79.0757 117.765 79.0757C117.808 79.0757 117.849 79.0614 117.883 79.0348C122.001 75.8121 128.157 73.334 129.586 74.1615C130.721 74.8192 130.739 76.0309 130.76 77.4954C130.766 77.8815 130.772 78.2852 130.799 78.701C130.914 80.4899 130.649 83.1681 130.585 83.7734C130.577 83.8499 130.614 83.9228 130.681 83.9613L139.859 89.2782C139.929 89.3188 140.015 89.3125 140.078 89.261C140.596 88.8345 142.966 86.9168 144.532 86.23C144.825 86.1013 145.099 85.9724 145.36 85.8499C146.712 85.2138 147.693 84.7527 149.032 85.4265C150.629 86.23 153.427 93.3013 146.773 106.712C140.228 119.902 130.565 118.501 130.25 118.452ZM125.819 99.8828C125.929 100.613 126.682 101.056 127.371 100.795L127.908 100.592C128.817 100.248 128.923 98.999 128.084 98.5057L127.462 98.14C126.623 97.6467 125.589 98.3493 125.734 99.314L125.819 99.8828Z" fill="white"/>
<path d="M102.576 124.996C103.362 125.722 102.562 126.998 101.566 126.605L99.3781 125.742C98.8158 125.52 98.5931 124.842 98.9144 124.33L99.373 123.599C99.6942 123.087 100.401 122.992 100.846 123.402L102.576 124.996Z" fill="white"/>
<path fill-rule="evenodd" clip-rule="evenodd" d="M108.638 122.056C108.939 122.196 109.07 122.552 108.931 122.853C108.277 124.265 107.492 126.567 107.264 128.856C107.034 131.172 107.388 133.296 108.79 134.569C110.58 136.196 112.807 136.161 114.616 134.762C116.45 133.343 117.893 130.469 117.795 126.389C117.787 126.057 118.05 125.782 118.381 125.774C118.712 125.766 118.987 126.028 118.995 126.36C119.099 130.719 117.56 134.002 115.35 135.711C113.115 137.44 110.236 137.504 107.983 135.457C106.149 133.791 105.829 131.165 106.07 128.738C106.314 126.284 107.147 123.85 107.842 122.349C107.981 122.048 108.337 121.917 108.638 122.056Z" fill="white"/>
<path fill-rule="evenodd" clip-rule="evenodd" d="M132.851 97.3187C133.104 97.1219 133.468 97.1671 133.665 97.4195C133.779 97.5657 133.876 97.7377 133.96 97.8941C133.997 97.9631 134.031 98.0276 134.064 98.0918C134.116 98.1904 134.167 98.2882 134.229 98.3997C134.42 98.7445 134.647 99.0959 134.975 99.4086C135.603 100.009 136.712 100.569 138.956 100.386C139.275 100.36 139.555 100.597 139.581 100.916C139.607 101.235 139.369 101.515 139.05 101.541C136.561 101.744 135.097 101.128 134.174 100.247C133.726 99.8189 133.432 99.3531 133.215 98.9616C133.149 98.843 133.083 98.7173 133.026 98.6072C132.994 98.5463 132.964 98.4902 132.939 98.4429C132.857 98.2911 132.799 98.1947 132.75 98.1321C132.554 97.8797 132.599 97.5155 132.851 97.3187Z" fill="#5D999A"/>
<path fill-rule="evenodd" clip-rule="evenodd" d="M126.075 93.892C126.153 93.5818 125.966 93.2665 125.655 93.1878C125.476 93.1423 125.279 93.1224 125.102 93.1084C125.024 93.1022 124.951 93.0972 124.879 93.0922C124.768 93.0845 124.658 93.077 124.531 93.0652C124.138 93.0289 123.725 92.9623 123.307 92.7882C122.505 92.454 121.546 91.6641 120.811 89.5361C120.707 89.2335 120.377 89.0729 120.074 89.1773C119.772 89.2818 119.611 89.6118 119.716 89.9143C120.531 92.2752 121.683 93.3675 122.861 93.8582C123.434 94.0966 123.978 94.1782 124.424 94.2194C124.559 94.2319 124.701 94.2418 124.825 94.2505C124.893 94.2552 124.957 94.2596 125.01 94.2639C125.182 94.2775 125.294 94.292 125.37 94.3115C125.681 94.3901 125.996 94.2023 126.075 93.892Z" fill="#5D999A"/>
<path d="M196.344 114.738L202.632 113.442C205.576 116.45 208.168 119.138 210.408 121.506C212.648 123.842 214.488 125.714 215.928 127.122C215.928 128.146 215.592 128.962 214.92 129.57C214.28 130.146 213.528 130.434 212.664 130.434C211.736 130.434 210.952 130.194 210.312 129.714C209.704 129.234 209.096 128.674 208.488 128.034L196.344 114.738ZM202.92 116.85L195.624 116.802L210.456 100.626C211.928 100.658 213 100.962 213.672 101.538C214.344 102.114 214.68 102.818 214.68 103.65C214.68 104.258 214.52 104.834 214.2 105.378C213.912 105.922 213.432 106.514 212.76 107.154L202.92 116.85ZM192.696 110.658H198.792V129.954C198.536 130.018 198.136 130.098 197.592 130.194C197.08 130.29 196.536 130.338 195.96 130.338C194.808 130.338 193.976 130.13 193.464 129.714C192.952 129.266 192.696 128.53 192.696 127.506V110.658ZM198.792 117.666H192.696V100.866C192.984 100.802 193.384 100.722 193.896 100.626C194.44 100.53 194.984 100.482 195.528 100.482C196.68 100.482 197.512 100.69 198.024 101.106C198.536 101.49 198.792 102.226 198.792 103.314V117.666ZM221.009 110.946H227.105V129.666L224.273 130.05C223.281 130.05 222.481 129.762 221.873 129.186C221.297 128.578 221.009 127.794 221.009 126.834V110.946ZM224.273 130.05V125.058H239.537C239.729 125.314 239.889 125.65 240.017 126.066C240.177 126.482 240.257 126.946 240.257 127.458C240.257 128.322 240.049 128.978 239.633 129.426C239.249 129.842 238.721 130.05 238.049 130.05H224.273ZM227.105 117.762H221.009V100.866C221.297 100.802 221.697 100.722 222.209 100.626C222.753 100.53 223.297 100.482 223.841 100.482C224.993 100.482 225.825 100.69 226.337 101.106C226.849 101.49 227.105 102.226 227.105 103.314V117.762ZM271.388 115.41C271.388 118.738 270.748 121.538 269.468 123.81C268.22 126.082 266.492 127.81 264.284 128.994C262.108 130.146 259.628 130.722 256.844 130.722C254.092 130.722 251.612 130.146 249.404 128.994C247.228 127.81 245.5 126.082 244.22 123.81C242.972 121.538 242.348 118.738 242.348 115.41C242.348 112.082 242.988 109.282 244.268 107.01C245.58 104.738 247.324 103.026 249.5 101.874C251.708 100.69 254.156 100.098 256.844 100.098C259.596 100.098 262.06 100.69 264.236 101.874C266.444 103.026 268.188 104.738 269.468 107.01C270.748 109.282 271.388 112.082 271.388 115.41ZM265.196 115.41C265.196 112.05 264.428 109.49 262.892 107.73C261.388 105.97 259.372 105.09 256.844 105.09C254.38 105.09 252.38 105.97 250.844 107.73C249.34 109.49 248.588 112.05 248.588 115.41C248.588 118.802 249.34 121.378 250.844 123.138C252.348 124.898 254.364 125.778 256.892 125.778C259.42 125.778 261.436 124.898 262.94 123.138C264.444 121.378 265.196 118.802 265.196 115.41ZM304.809 115.41C304.809 118.738 304.169 121.538 302.889 123.81C301.641 126.082 299.913 127.81 297.705 128.994C295.529 130.146 293.049 130.722 290.265 130.722C287.513 130.722 285.033 130.146 282.825 128.994C280.649 127.81 278.921 126.082 277.641 123.81C276.393 121.538 275.769 118.738 275.769 115.41C275.769 112.082 276.409 109.282 277.689 107.01C279.001 104.738 280.745 103.026 282.921 101.874C285.129 100.69 287.577 100.098 290.265 100.098C293.017 100.098 295.481 100.69 297.657 101.874C299.865 103.026 301.609 104.738 302.889 107.01C304.169 109.282 304.809 112.082 304.809 115.41ZM298.617 115.41C298.617 112.05 297.849 109.49 296.313 107.73C294.809 105.97 292.793 105.09 290.265 105.09C287.801 105.09 285.801 105.97 284.265 107.73C282.761 109.49 282.009 112.05 282.009 115.41C282.009 118.802 282.761 121.378 284.265 123.138C285.769 124.898 287.785 125.778 290.313 125.778C292.841 125.778 294.857 124.898 296.361 123.138C297.865 121.378 298.617 118.802 298.617 115.41ZM326.231 112.77V117.234H314.615V112.77H326.231ZM321.959 117.234L322.871 113.826C325.335 113.826 327.383 114.162 329.015 114.834C330.679 115.506 331.927 116.434 332.759 117.618C333.591 118.77 334.007 120.13 334.007 121.698C334.007 124.738 332.887 126.994 330.647 128.466C328.407 129.906 325.239 130.626 321.143 130.626C320.343 130.626 319.463 130.594 318.503 130.53C317.575 130.498 316.631 130.402 315.671 130.242C314.743 130.082 313.879 129.89 313.079 129.666C311.511 129.122 310.727 128.178 310.727 126.834V103.266C310.727 102.69 310.887 102.242 311.207 101.922C311.559 101.57 312.007 101.314 312.551 101.154C313.639 100.802 314.903 100.562 316.343 100.434C317.783 100.274 319.271 100.194 320.807 100.194C324.647 100.194 327.623 100.866 329.735 102.21C331.847 103.554 332.903 105.602 332.903 108.354C332.903 109.826 332.487 111.122 331.655 112.242C330.855 113.33 329.639 114.178 328.007 114.786C326.407 115.394 324.391 115.698 321.959 115.698L321.575 112.77C323.335 112.77 324.647 112.418 325.511 111.714C326.375 111.01 326.807 110.018 326.807 108.738C326.807 107.49 326.311 106.546 325.319 105.906C324.327 105.234 322.839 104.898 320.855 104.898C320.055 104.898 319.287 104.93 318.551 104.994C317.815 105.058 317.191 105.138 316.679 105.234V125.442C317.287 125.602 318.023 125.714 318.887 125.778C319.751 125.842 320.599 125.874 321.431 125.874C323.415 125.874 324.967 125.522 326.087 124.818C327.239 124.082 327.815 122.962 327.815 121.458C327.815 120.082 327.319 119.042 326.327 118.338C325.335 117.602 323.879 117.234 321.959 117.234ZM367.481 115.41C367.481 118.738 366.841 121.538 365.561 123.81C364.313 126.082 362.585 127.81 360.377 128.994C358.201 130.146 355.721 130.722 352.937 130.722C350.185 130.722 347.705 130.146 345.497 128.994C343.321 127.81 341.593 126.082 340.313 123.81C339.065 121.538 338.441 118.738 338.441 115.41C338.441 112.082 339.081 109.282 340.361 107.01C341.673 104.738 343.417 103.026 345.593 101.874C347.801 100.69 350.249 100.098 352.937 100.098C355.689 100.098 358.153 100.69 360.329 101.874C362.537 103.026 364.281 104.738 365.561 107.01C366.841 109.282 367.481 112.082 367.481 115.41ZM361.289 115.41C361.289 112.05 360.521 109.49 358.985 107.73C357.481 105.97 355.465 105.09 352.937 105.09C350.473 105.09 348.473 105.97 346.937 107.73C345.433 109.49 344.681 112.05 344.681 115.41C344.681 118.802 345.433 121.378 346.937 123.138C348.441 124.898 350.457 125.778 352.985 125.778C355.513 125.778 357.529 124.898 359.033 123.138C360.537 121.378 361.289 118.802 361.289 115.41ZM377.047 114.738L383.335 113.442C386.279 116.45 388.871 119.138 391.111 121.506C393.351 123.842 395.191 125.714 396.631 127.122C396.631 128.146 396.295 128.962 395.623 129.57C394.983 130.146 394.231 130.434 393.367 130.434C392.439 130.434 391.655 130.194 391.015 129.714C390.407 129.234 389.799 128.674 389.191 128.034L377.047 114.738ZM383.623 116.85L376.327 116.802L391.159 100.626C392.631 100.658 393.703 100.962 394.375 101.538C395.047 102.114 395.383 102.818 395.383 103.65C395.383 104.258 395.223 104.834 394.903 105.378C394.615 105.922 394.135 106.514 393.463 107.154L383.623 116.85ZM373.399 110.658H379.495V129.954C379.239 130.018 378.839 130.098 378.295 130.194C377.783 130.29 377.239 130.338 376.663 130.338C375.511 130.338 374.679 130.13 374.167 129.714C373.655 129.266 373.399 128.53 373.399 127.506V110.658ZM379.495 117.666H373.399V100.866C373.687 100.802 374.087 100.722 374.599 100.626C375.143 100.53 375.687 100.482 376.231 100.482C377.383 100.482 378.215 100.69 378.727 101.106C379.239 101.49 379.495 102.226 379.495 103.314V117.666Z" fill="white"/>
<path d="M194.472 151.874C193.469 151.959 192.584 151.9 191.816 151.698C191.059 151.495 190.451 151.111 189.992 150.546C189.832 150.364 189.709 150.124 189.624 149.826C189.624 149.815 189.603 149.724 189.56 149.554C189.539 149.468 189.517 149.404 189.496 149.362C189.421 149.17 189.427 148.983 189.512 148.802C189.597 148.62 189.736 148.492 189.928 148.418C190.12 148.343 190.307 148.348 190.488 148.434C190.669 148.519 190.797 148.658 190.872 148.85C190.904 148.935 190.936 149.042 190.968 149.17L190.984 149.266C191.005 149.33 191.021 149.378 191.032 149.41C191.064 149.516 191.091 149.586 191.112 149.618C191.357 149.916 191.768 150.156 192.344 150.338C192.931 150.519 193.549 150.551 194.2 150.434C194.872 150.306 195.4 150.087 195.784 149.778C196.168 149.458 196.371 149.1 196.392 148.706C196.413 148.29 196.333 147.964 196.152 147.73C195.971 147.484 195.704 147.287 195.352 147.138C195.139 147.042 194.803 146.93 194.344 146.802C194.131 146.748 193.976 146.706 193.88 146.674C193.56 146.546 193.357 146.354 193.272 146.098C193.187 145.863 193.197 145.639 193.304 145.426C193.4 145.223 193.56 145.084 193.784 145.01C193.923 144.956 194.115 144.93 194.36 144.93C194.381 144.93 194.435 144.935 194.52 144.946C194.605 144.946 194.675 144.946 194.728 144.946H194.808C195.085 144.828 195.304 144.679 195.464 144.498C195.677 144.263 195.784 143.98 195.784 143.65C195.795 143.319 195.688 143.004 195.464 142.706C195.272 142.45 194.979 142.263 194.584 142.146C194.2 142.018 193.768 141.98 193.288 142.034C192.819 142.087 192.397 142.22 192.024 142.434C191.661 142.647 191.405 142.898 191.256 143.186C191.235 143.207 191.224 143.266 191.224 143.362C191.213 143.394 191.208 143.42 191.208 143.442V143.522C191.208 143.554 191.203 143.575 191.192 143.586C191.181 143.703 191.171 143.804 191.16 143.89C191.128 144.092 191.027 144.252 190.856 144.37C190.696 144.476 190.515 144.514 190.312 144.482C190.109 144.45 189.949 144.354 189.832 144.194C189.725 144.023 189.688 143.836 189.72 143.634C189.731 143.591 189.736 143.538 189.736 143.474C189.747 143.314 189.752 143.228 189.752 143.218C189.784 142.94 189.848 142.706 189.944 142.514C190.232 141.959 190.664 141.516 191.24 141.186C191.827 140.855 192.456 140.652 193.128 140.578C193.811 140.503 194.472 140.567 195.112 140.77C195.752 140.972 196.264 141.33 196.648 141.842C197.053 142.386 197.256 142.988 197.256 143.65C197.256 144.311 197.021 144.924 196.552 145.49C196.424 145.628 196.28 145.756 196.12 145.874C197.347 146.471 197.928 147.436 197.864 148.77C197.843 149.218 197.725 149.628 197.512 150.002C197.309 150.364 197.037 150.668 196.696 150.914C196.365 151.159 196.013 151.362 195.64 151.522C195.267 151.671 194.877 151.788 194.472 151.874ZM206.816 151.234C206.816 151.458 206.736 151.644 206.576 151.794C206.416 151.943 206.224 152.018 206 152.018C205.776 152.018 205.589 151.938 205.44 151.778C205.29 151.618 205.216 151.426 205.216 151.202C205.269 148.428 205.269 146.418 205.216 145.17C205.045 145.17 204.741 145.164 204.304 145.154C203.877 145.143 203.546 145.138 203.312 145.138C203.088 145.138 202.901 145.058 202.752 144.898C202.602 144.738 202.528 144.546 202.528 144.322C202.528 144.098 202.608 143.911 202.768 143.762C202.928 143.612 203.12 143.538 203.344 143.538C206.181 143.591 208.005 143.602 208.816 143.57C209.04 143.559 209.232 143.628 209.392 143.778C209.552 143.927 209.637 144.114 209.648 144.338C209.658 144.562 209.589 144.754 209.44 144.914C209.29 145.074 209.104 145.159 208.88 145.17C208.261 145.191 207.573 145.202 206.816 145.202C206.869 146.471 206.869 148.482 206.816 151.234ZM212.189 152.258C211.976 152.322 211.773 152.295 211.581 152.178C211.389 152.071 211.266 151.911 211.213 151.698C211.181 151.58 211.154 151.468 211.133 151.362C211.112 151.308 211.096 151.255 211.085 151.202C210.957 150.562 210.861 149.906 210.797 149.234C210.733 148.551 210.685 147.735 210.653 146.786C210.621 145.836 210.594 145.186 210.573 144.834C210.541 144.77 210.514 144.7 210.493 144.626C210.461 144.476 210.472 144.327 210.525 144.178C210.546 143.996 210.621 143.836 210.749 143.698C210.888 143.559 211.053 143.479 211.245 143.458C211.426 143.447 211.592 143.484 211.741 143.57C212.594 143.431 213.378 143.372 214.093 143.394C214.786 143.404 215.368 143.5 215.837 143.682C216.541 143.948 216.978 144.38 217.149 144.978C217.373 145.842 217.24 146.556 216.749 147.122C216.674 147.218 216.589 147.308 216.493 147.394C216.557 147.426 216.616 147.468 216.669 147.522C217.106 147.831 217.4 148.204 217.549 148.642C217.698 149.068 217.698 149.5 217.549 149.938C217.432 150.322 217.218 150.668 216.909 150.978C216.61 151.276 216.258 151.506 215.853 151.666C215.149 151.932 214.077 152.028 212.637 151.954C212.52 152.114 212.37 152.215 212.189 152.258ZM212.557 150.338C213.026 150.38 213.512 150.396 214.013 150.386C214.525 150.364 214.946 150.29 215.277 150.162C215.469 150.087 215.629 149.986 215.757 149.858C215.896 149.73 215.986 149.596 216.029 149.458C216.104 149.223 216.008 149.004 215.741 148.802C215.389 148.546 214.84 148.434 214.093 148.466C213.656 148.487 213.08 148.567 212.365 148.706C212.408 149.314 212.472 149.858 212.557 150.338ZM212.269 146.978C213.293 146.903 214.098 146.764 214.685 146.562C215.101 146.423 215.384 146.263 215.533 146.082C215.65 145.954 215.682 145.783 215.629 145.57C215.597 145.388 215.48 145.255 215.277 145.17C214.978 145.063 214.568 145.004 214.045 144.994C213.501 144.983 212.882 145.026 212.189 145.122C212.21 145.591 212.237 146.21 212.269 146.978ZM221.7 151.97C221.167 152.044 220.655 151.97 220.164 151.746C219.684 151.511 219.263 151.127 218.9 150.594C218.612 150.167 218.436 149.778 218.372 149.426C218.308 149.063 218.287 148.62 218.308 148.098C218.351 147.02 218.612 146.098 219.092 145.33C219.583 144.551 220.228 144.018 221.028 143.73C221.817 143.431 222.649 143.415 223.524 143.682C224.388 143.948 225.183 144.466 225.908 145.234C226.068 145.404 226.143 145.602 226.132 145.826C226.121 146.05 226.036 146.242 225.876 146.402C225.791 146.487 225.684 146.551 225.556 146.594C225.567 146.69 225.572 146.807 225.572 146.946C225.572 147.031 225.567 147.116 225.556 147.202C225.556 147.276 225.556 147.319 225.556 147.33V147.474C225.567 147.634 225.577 147.82 225.588 148.034C225.609 148.236 225.62 148.386 225.62 148.482C225.631 148.578 225.641 148.684 225.652 148.802C225.673 148.919 225.689 149.015 225.7 149.09C225.721 149.164 225.743 149.239 225.764 149.314C225.86 149.634 226.201 150.082 226.788 150.658C226.937 150.828 227.012 151.026 227.012 151.25C227.012 151.474 226.927 151.666 226.756 151.826C226.596 151.986 226.404 152.066 226.18 152.066C225.956 152.066 225.759 151.986 225.588 151.826C224.937 151.154 224.511 150.578 224.308 150.098C224.265 150.183 224.217 150.258 224.164 150.322C223.865 150.759 223.503 151.127 223.076 151.426C222.649 151.724 222.191 151.906 221.7 151.97ZM221.476 150.338C221.977 150.274 222.42 149.959 222.804 149.394C223.188 148.818 223.487 148.023 223.7 147.01V146.946C223.7 146.903 223.7 146.844 223.7 146.77C223.711 146.695 223.716 146.62 223.716 146.546C223.727 146.343 223.748 146.188 223.78 146.082C223.812 145.975 223.865 145.874 223.94 145.778C223.951 145.756 223.961 145.74 223.972 145.73C223.14 145.154 222.345 145.004 221.588 145.282C221.151 145.442 220.777 145.767 220.468 146.258C220.159 146.738 219.988 147.372 219.956 148.162C219.945 148.567 219.956 148.86 219.988 149.042C220.02 149.223 220.121 149.436 220.292 149.682C220.623 150.183 221.017 150.402 221.476 150.338ZM228.529 154.45C228.486 153.724 228.454 152.994 228.433 152.258C228.412 151.522 228.396 150.636 228.385 149.602C228.374 148.556 228.364 147.836 228.353 147.442C228.193 147.324 228.092 147.164 228.049 146.962C228.006 146.748 228.038 146.556 228.145 146.386L228.321 146.114C228.3 145.612 228.278 145.138 228.257 144.69C228.246 144.466 228.316 144.274 228.465 144.114C228.614 143.943 228.796 143.852 229.009 143.842C229.201 143.831 229.372 143.884 229.521 144.002C229.681 144.119 229.788 144.268 229.841 144.45C229.948 144.364 230.06 144.284 230.177 144.21C230.838 143.762 231.489 143.527 232.129 143.506C232.78 143.474 233.356 143.634 233.857 143.986C234.316 144.295 234.694 144.711 234.993 145.234C235.292 145.746 235.5 146.311 235.617 146.93C235.884 148.263 235.745 149.42 235.201 150.402C234.881 150.978 234.444 151.42 233.889 151.73C233.345 152.039 232.7 152.167 231.953 152.114C231.526 152.082 231.19 152.034 230.945 151.97C230.71 151.895 230.412 151.751 230.049 151.538L230.017 151.522C230.038 152.567 230.076 153.511 230.129 154.354C230.14 154.578 230.07 154.77 229.921 154.93C229.782 155.1 229.601 155.191 229.377 155.202C229.153 155.212 228.956 155.143 228.785 154.994C228.625 154.855 228.54 154.674 228.529 154.45ZM232.049 150.514C232.86 150.567 233.441 150.274 233.793 149.634C234.145 148.983 234.23 148.188 234.049 147.25C233.964 146.812 233.82 146.423 233.617 146.082C233.425 145.74 233.206 145.484 232.961 145.314C232.438 144.962 231.809 145.031 231.073 145.522C230.636 145.82 230.257 146.183 229.937 146.61L229.985 149.362C230.198 149.65 230.31 149.799 230.321 149.81C230.374 149.874 230.55 149.991 230.849 150.162C231.105 150.3 231.292 150.391 231.409 150.434C231.537 150.466 231.75 150.492 232.049 150.514ZM237.528 151.922C237.24 151.73 237.128 151.463 237.192 151.122C237.182 151.1 237.176 151.079 237.176 151.058C237.123 150.546 237.091 149.97 237.08 149.33C237.07 148.69 237.07 148.21 237.08 147.89C237.091 147.57 237.118 146.914 237.16 145.922C237.214 144.93 237.246 144.37 237.256 144.242C237.267 144.028 237.352 143.847 237.512 143.698C237.683 143.548 237.875 143.479 238.088 143.49C238.312 143.5 238.499 143.591 238.648 143.762C238.798 143.922 238.867 144.114 238.856 144.338C238.846 144.562 238.819 145.068 238.776 145.858C238.734 146.647 238.702 147.26 238.68 147.698C238.67 148.124 238.664 148.546 238.664 148.962L239.8 147.506C240.803 146.194 241.566 145.004 242.088 143.938C242.227 143.714 242.43 143.586 242.696 143.554C242.782 143.522 242.872 143.5 242.968 143.49C243.192 143.479 243.384 143.548 243.544 143.698C243.715 143.836 243.806 144.018 243.816 144.242C243.859 145.287 243.875 146.514 243.864 147.922C243.832 149.436 243.832 150.53 243.864 151.202C243.875 151.426 243.806 151.618 243.656 151.778C243.507 151.938 243.32 152.023 243.096 152.034C242.872 152.044 242.68 151.975 242.52 151.826C242.36 151.676 242.275 151.49 242.264 151.266C242.232 150.583 242.232 149.463 242.264 147.906V146.866L241.064 148.482C239.816 150.103 239.006 151.18 238.632 151.714C238.504 151.895 238.334 152.007 238.12 152.05C237.907 152.092 237.71 152.05 237.528 151.922ZM246.098 151.282C246.045 150.599 246.002 149.964 245.97 149.378C245.938 148.759 245.917 148.231 245.906 147.794C245.906 147.346 245.901 146.743 245.89 145.986C245.89 145.228 245.885 144.674 245.874 144.322C245.874 144.098 245.949 143.906 246.098 143.746C246.248 143.586 246.434 143.506 246.658 143.506C246.882 143.506 247.074 143.58 247.234 143.73C247.394 143.879 247.474 144.066 247.474 144.29L247.506 146.834C248.584 146.791 249.778 146.77 251.09 146.77C251.08 146.172 251.048 145.362 250.994 144.338C250.984 144.114 251.053 143.922 251.202 143.762C251.352 143.591 251.533 143.5 251.746 143.49C251.97 143.479 252.162 143.548 252.322 143.698C252.493 143.847 252.584 144.028 252.594 144.242C252.701 146.332 252.754 148.652 252.754 151.202C252.754 151.426 252.674 151.618 252.514 151.778C252.365 151.927 252.178 152.002 251.954 152.002C251.73 152.002 251.538 151.927 251.378 151.778C251.229 151.618 251.154 151.426 251.154 151.202C251.154 150.146 251.149 149.202 251.138 148.37C249.805 148.37 248.605 148.391 247.538 148.434C247.56 149.351 247.613 150.247 247.698 151.122C247.72 151.335 247.661 151.532 247.522 151.714C247.384 151.884 247.202 151.98 246.978 152.002C246.765 152.023 246.568 151.964 246.386 151.826C246.216 151.687 246.12 151.506 246.098 151.282ZM260.617 151.746C259.497 150.487 258.553 149.314 257.785 148.226L256.441 149.634L256.425 149.666C256.467 150.156 256.521 150.652 256.585 151.154C256.617 151.367 256.569 151.564 256.441 151.746C256.313 151.916 256.137 152.018 255.913 152.05C255.699 152.082 255.502 152.034 255.321 151.906C255.15 151.778 255.049 151.602 255.017 151.378C254.931 150.78 254.867 150.172 254.825 149.554C254.782 148.914 254.755 148.428 254.745 148.098C254.745 147.756 254.745 147.1 254.745 146.13C254.755 145.148 254.761 144.535 254.761 144.29C254.761 144.066 254.835 143.879 254.985 143.73C255.145 143.57 255.337 143.49 255.561 143.49C255.785 143.49 255.971 143.57 256.121 143.73C256.281 143.879 256.361 144.066 256.361 144.29C256.361 144.62 256.355 145.17 256.345 145.938C256.345 146.695 256.345 147.223 256.345 147.522C258.531 145.474 259.79 144.29 260.121 143.97C260.27 143.81 260.457 143.73 260.681 143.73C260.905 143.73 261.091 143.81 261.241 143.97C261.401 144.119 261.481 144.306 261.481 144.53C261.481 144.754 261.401 144.94 261.241 145.09C260.729 145.612 259.982 146.3 259.001 147.154C259.747 148.242 260.681 149.42 261.801 150.69C261.95 150.85 262.019 151.042 262.009 151.266C261.998 151.479 261.907 151.66 261.737 151.81C261.577 151.959 261.385 152.028 261.161 152.018C260.947 152.007 260.766 151.916 260.617 151.746ZM265.619 151.97C265.085 152.044 264.573 151.97 264.083 151.746C263.603 151.511 263.181 151.127 262.819 150.594C262.531 150.167 262.355 149.778 262.291 149.426C262.227 149.063 262.205 148.62 262.227 148.098C262.269 147.02 262.531 146.098 263.011 145.33C263.501 144.551 264.147 144.018 264.947 143.73C265.736 143.431 266.568 143.415 267.443 143.682C268.307 143.948 269.101 144.466 269.827 145.234C269.987 145.404 270.061 145.602 270.051 145.826C270.04 146.05 269.955 146.242 269.795 146.402C269.709 146.487 269.603 146.551 269.475 146.594C269.485 146.69 269.491 146.807 269.491 146.946C269.491 147.031 269.485 147.116 269.475 147.202C269.475 147.276 269.475 147.319 269.475 147.33V147.474C269.485 147.634 269.496 147.82 269.507 148.034C269.528 148.236 269.539 148.386 269.539 148.482C269.549 148.578 269.56 148.684 269.571 148.802C269.592 148.919 269.608 149.015 269.619 149.09C269.64 149.164 269.661 149.239 269.683 149.314C269.779 149.634 270.12 150.082 270.707 150.658C270.856 150.828 270.931 151.026 270.931 151.25C270.931 151.474 270.845 151.666 270.675 151.826C270.515 151.986 270.323 152.066 270.099 152.066C269.875 152.066 269.677 151.986 269.507 151.826C268.856 151.154 268.429 150.578 268.227 150.098C268.184 150.183 268.136 150.258 268.083 150.322C267.784 150.759 267.421 151.127 266.995 151.426C266.568 151.724 266.109 151.906 265.619 151.97ZM265.395 150.338C265.896 150.274 266.339 149.959 266.723 149.394C267.107 148.818 267.405 148.023 267.619 147.01V146.946C267.619 146.903 267.619 146.844 267.619 146.77C267.629 146.695 267.635 146.62 267.635 146.546C267.645 146.343 267.667 146.188 267.699 146.082C267.731 145.975 267.784 145.874 267.859 145.778C267.869 145.756 267.88 145.74 267.891 145.73C267.059 145.154 266.264 145.004 265.507 145.282C265.069 145.442 264.696 145.767 264.387 146.258C264.077 146.738 263.907 147.372 263.875 148.162C263.864 148.567 263.875 148.86 263.907 149.042C263.939 149.223 264.04 149.436 264.211 149.682C264.541 150.183 264.936 150.402 265.395 150.338ZM276.544 151.89C276.352 151.986 276.149 152.002 275.936 151.938C275.733 151.863 275.579 151.724 275.472 151.522C275.077 150.732 274.512 149.436 273.776 147.634C273.776 147.922 273.771 148.487 273.76 149.33C273.749 150.162 273.744 150.791 273.744 151.218C273.744 151.442 273.664 151.634 273.504 151.794C273.355 151.943 273.168 152.018 272.944 152.018C272.72 152.018 272.528 151.943 272.368 151.794C272.219 151.634 272.144 151.442 272.144 151.218C272.144 150.78 272.149 150.066 272.16 149.074C272.181 148.071 272.187 147.212 272.176 146.498C272.176 145.783 272.155 145.079 272.112 144.386C272.101 144.162 272.165 143.97 272.304 143.81C272.453 143.639 272.64 143.548 272.864 143.538H272.896C273.088 143.463 273.28 143.468 273.472 143.554C273.664 143.628 273.803 143.756 273.888 143.938L275.136 146.77L276.24 149.25L276.384 148.93C277.728 146.391 278.437 145.026 278.512 144.834C278.597 144.631 278.672 144.428 278.736 144.226L278.752 144.21C278.773 144.028 278.853 143.874 278.992 143.746C279.141 143.618 279.312 143.548 279.504 143.538C279.728 143.527 279.92 143.596 280.08 143.746C280.24 143.895 280.325 144.082 280.336 144.306C280.347 144.711 280.373 145.287 280.416 146.034C280.459 146.706 280.485 147.25 280.496 147.666C280.549 149.02 280.549 150.226 280.496 151.282C280.485 151.506 280.395 151.692 280.224 151.842C280.064 151.98 279.872 152.044 279.648 152.034C279.424 152.023 279.237 151.938 279.088 151.778C278.949 151.607 278.885 151.41 278.896 151.186C278.949 150.151 278.949 148.999 278.896 147.73V147.57L278.608 148.082C278.384 148.455 278.128 148.962 277.84 149.602L277.072 151.378C277.008 151.506 276.917 151.607 276.8 151.682C276.736 151.767 276.651 151.836 276.544 151.89ZM282.963 151.922C282.675 151.73 282.563 151.463 282.627 151.122C282.616 151.1 282.611 151.079 282.611 151.058C282.557 150.546 282.525 149.97 282.515 149.33C282.504 148.69 282.504 148.21 282.515 147.89C282.525 147.57 282.552 146.914 282.595 145.922C282.648 144.93 282.68 144.37 282.691 144.242C282.701 144.028 282.787 143.847 282.947 143.698C283.117 143.548 283.309 143.479 283.523 143.49C283.747 143.5 283.933 143.591 284.083 143.762C284.232 143.922 284.301 144.114 284.291 144.338C284.28 144.562 284.253 145.068 284.211 145.858C284.168 146.647 284.136 147.26 284.115 147.698C284.104 148.124 284.099 148.546 284.099 148.962L285.235 147.506C286.237 146.194 287 145.004 287.523 143.938C287.661 143.714 287.864 143.586 288.131 143.554C288.216 143.522 288.307 143.5 288.403 143.49C288.627 143.479 288.819 143.548 288.979 143.698C289.149 143.836 289.24 144.018 289.251 144.242C289.293 145.287 289.309 146.514 289.299 147.922C289.267 149.436 289.267 150.53 289.299 151.202C289.309 151.426 289.24 151.618 289.091 151.778C288.941 151.938 288.755 152.023 288.531 152.034C288.307 152.044 288.115 151.975 287.955 151.826C287.795 151.676 287.709 151.49 287.699 151.266C287.667 150.583 287.667 149.463 287.699 147.906V146.866L286.499 148.482C285.251 150.103 284.44 151.18 284.067 151.714C283.939 151.895 283.768 152.007 283.555 152.05C283.341 152.092 283.144 152.05 282.963 151.922ZM296.917 152.258C296.704 152.322 296.501 152.295 296.309 152.178C296.117 152.071 295.994 151.911 295.941 151.698C295.909 151.58 295.882 151.468 295.861 151.362C295.84 151.308 295.824 151.255 295.813 151.202C295.685 150.562 295.589 149.906 295.525 149.234C295.461 148.551 295.413 147.735 295.381 146.786C295.349 145.836 295.322 145.186 295.301 144.834C295.269 144.77 295.242 144.7 295.221 144.626C295.189 144.476 295.2 144.327 295.253 144.178C295.274 143.996 295.349 143.836 295.477 143.698C295.616 143.559 295.781 143.479 295.973 143.458C296.154 143.447 296.32 143.484 296.469 143.57C297.322 143.431 298.106 143.372 298.821 143.394C299.514 143.404 300.096 143.5 300.565 143.682C301.269 143.948 301.706 144.38 301.877 144.978C302.101 145.842 301.968 146.556 301.477 147.122C301.402 147.218 301.317 147.308 301.221 147.394C301.285 147.426 301.344 147.468 301.397 147.522C301.834 147.831 302.128 148.204 302.277 148.642C302.426 149.068 302.426 149.5 302.277 149.938C302.16 150.322 301.946 150.668 301.637 150.978C301.338 151.276 300.986 151.506 300.581 151.666C299.877 151.932 298.805 152.028 297.365 151.954C297.248 152.114 297.098 152.215 296.917 152.258ZM297.285 150.338C297.754 150.38 298.24 150.396 298.741 150.386C299.253 150.364 299.674 150.29 300.005 150.162C300.197 150.087 300.357 149.986 300.485 149.858C300.624 149.73 300.714 149.596 300.757 149.458C300.832 149.223 300.736 149.004 300.469 148.802C300.117 148.546 299.568 148.434 298.821 148.466C298.384 148.487 297.808 148.567 297.093 148.706C297.136 149.314 297.2 149.858 297.285 150.338ZM296.997 146.978C298.021 146.903 298.826 146.764 299.413 146.562C299.829 146.423 300.112 146.263 300.261 146.082C300.378 145.954 300.41 145.783 300.357 145.57C300.325 145.388 300.208 145.255 300.005 145.17C299.706 145.063 299.296 145.004 298.773 144.994C298.229 144.983 297.61 145.026 296.917 145.122C296.938 145.591 296.965 146.21 296.997 146.978ZM306.7 152.002C305.943 151.991 305.292 151.82 304.748 151.49C304.204 151.159 303.783 150.716 303.484 150.162C302.972 149.159 302.887 148.018 303.228 146.738C303.388 146.162 303.628 145.628 303.948 145.138C304.279 144.647 304.679 144.263 305.148 143.986C305.649 143.655 306.215 143.506 306.844 143.538C307.484 143.57 308.119 143.788 308.748 144.194C308.908 144.311 309.047 144.423 309.164 144.53C309.292 144.636 309.399 144.759 309.484 144.898C309.58 145.026 309.649 145.127 309.692 145.202C309.735 145.276 309.793 145.372 309.868 145.49C309.943 145.607 309.991 145.687 310.012 145.73C310.108 145.932 310.119 146.14 310.044 146.354C309.969 146.556 309.831 146.706 309.628 146.802C309.436 146.898 309.233 146.908 309.02 146.834C308.817 146.759 308.668 146.626 308.572 146.434C308.519 146.327 308.46 146.231 308.396 146.146C308.343 146.06 308.305 146.002 308.284 145.97C308.263 145.927 308.231 145.874 308.188 145.81C308.145 145.746 308.103 145.698 308.06 145.666C308.017 145.634 307.948 145.591 307.852 145.538C307.159 145.079 306.535 145.015 305.98 145.346C305.415 145.698 305.015 146.3 304.78 147.154C304.545 148.039 304.588 148.796 304.908 149.426C305.239 150.055 305.847 150.38 306.732 150.402C307.052 150.412 307.308 150.359 307.5 150.242C307.703 150.135 307.991 149.916 308.364 149.586C308.513 149.415 308.695 149.319 308.908 149.298C309.132 149.276 309.329 149.34 309.5 149.49C309.671 149.628 309.767 149.81 309.788 150.034C309.809 150.247 309.751 150.439 309.612 150.61C309.111 151.079 308.652 151.431 308.236 151.666C307.831 151.9 307.319 152.012 306.7 152.002ZM317.839 150.738C317.477 151.111 317.066 151.41 316.607 151.634C316.159 151.847 315.717 151.97 315.279 152.002C314.842 152.044 314.394 152.023 313.935 151.938C313.487 151.852 313.077 151.698 312.703 151.474C312.341 151.239 312.005 150.962 311.695 150.642C311.386 150.311 311.151 149.932 310.991 149.506C310.842 149.068 310.757 148.61 310.735 148.13C310.725 147.639 310.826 147.111 311.039 146.546C311.423 145.479 312.031 144.674 312.863 144.13C313.695 143.586 314.57 143.367 315.487 143.474C316.437 143.591 317.221 144.034 317.839 144.802C318.469 145.559 318.783 146.535 318.783 147.73C318.783 148.028 318.655 148.258 318.399 148.418C318.239 148.535 318.058 148.583 317.855 148.562C316.533 148.423 314.735 148.412 312.463 148.53H312.431C312.517 148.967 312.714 149.351 313.023 149.682C313.343 150.002 313.701 150.226 314.095 150.354C314.501 150.482 314.938 150.492 315.407 150.386C315.887 150.268 316.314 150.012 316.687 149.618C316.847 149.458 317.034 149.378 317.247 149.378C317.471 149.378 317.663 149.458 317.823 149.618C317.983 149.767 318.063 149.954 318.063 150.178C318.063 150.391 317.989 150.578 317.839 150.738ZM312.607 146.914C314.431 146.828 315.93 146.823 317.103 146.898C316.986 146.343 316.757 145.911 316.415 145.602C316.085 145.292 315.711 145.116 315.295 145.074C314.783 145.01 314.277 145.132 313.775 145.442C313.274 145.751 312.885 146.242 312.607 146.914ZM324.866 150.946C324.205 150.274 323.816 149.308 323.698 148.05C323.634 147.292 323.666 146.348 323.794 145.218C323.858 144.674 323.976 144.172 324.146 143.714C324.328 143.244 324.562 142.818 324.85 142.434C325.149 142.039 325.533 141.719 326.002 141.474C326.482 141.218 327.026 141.052 327.634 140.978C327.816 140.956 327.997 140.946 328.178 140.946C328.36 140.935 328.488 140.93 328.562 140.93C328.637 140.919 328.712 140.903 328.786 140.882C328.872 140.85 328.952 140.807 329.026 140.754L329.074 140.674L329.154 140.498C329.208 140.402 329.256 140.322 329.298 140.258C329.416 140.066 329.581 139.948 329.794 139.906C330.018 139.863 330.221 139.9 330.402 140.018C330.594 140.135 330.712 140.306 330.754 140.53C330.797 140.743 330.76 140.94 330.642 141.122C330.621 141.154 330.6 141.191 330.578 141.234L330.466 141.442C330.338 141.687 330.189 141.874 330.018 142.002C329.837 142.151 329.624 142.268 329.378 142.354C329.133 142.439 328.925 142.492 328.754 142.514C328.594 142.535 328.402 142.551 328.178 142.562C327.954 142.562 327.826 142.567 327.794 142.578C326.621 142.706 325.869 143.378 325.538 144.594C325.826 144.327 326.146 144.114 326.498 143.954C327.458 143.516 328.434 143.575 329.426 144.13C330.024 144.46 330.504 144.924 330.866 145.522C331.24 146.119 331.448 146.802 331.49 147.57C331.544 148.338 331.368 149.143 330.962 149.986C330.6 150.732 330.05 151.292 329.314 151.666C328.578 152.028 327.8 152.146 326.978 152.018C326.157 151.9 325.453 151.543 324.866 150.946ZM326.018 149.826C326.349 150.167 326.749 150.375 327.218 150.45C327.698 150.514 328.152 150.439 328.578 150.226C329.005 150.012 329.32 149.698 329.522 149.282C329.81 148.706 329.933 148.167 329.89 147.666C329.858 147.154 329.73 146.716 329.506 146.354C329.282 145.991 329 145.714 328.658 145.522C328.136 145.234 327.629 145.196 327.138 145.41C326.53 145.687 326.05 146.322 325.698 147.314C325.624 147.527 325.485 147.682 325.282 147.778C325.293 147.82 325.298 147.863 325.298 147.906C325.373 148.78 325.613 149.42 326.018 149.826ZM333.568 154.914C333.365 154.978 333.163 154.956 332.96 154.85C332.768 154.743 332.64 154.583 332.576 154.37C332.512 154.167 332.533 153.964 332.64 153.762C332.747 153.57 332.907 153.442 333.12 153.378C333.227 153.346 333.323 153.319 333.408 153.298C333.504 153.276 333.568 153.26 333.6 153.25H333.696C333.728 153.239 333.76 153.223 333.792 153.202C334.037 153.052 334.352 152.615 334.736 151.89V151.874L334.704 151.81C333.616 149.548 332.731 147.1 332.048 144.466C331.984 144.252 332.005 144.05 332.112 143.858C332.229 143.666 332.395 143.543 332.608 143.49C332.821 143.426 333.024 143.447 333.216 143.554C333.408 143.671 333.531 143.836 333.584 144.05C334.128 146.14 334.8 148.098 335.6 149.922L335.872 149.186C336.203 148.258 336.496 147.319 336.752 146.37C337.019 145.42 337.2 144.69 337.296 144.178C337.328 143.964 337.435 143.794 337.616 143.666C337.797 143.538 337.995 143.495 338.208 143.538C338.432 143.57 338.608 143.676 338.736 143.858C338.864 144.039 338.907 144.242 338.864 144.466C338.768 145.02 338.581 145.794 338.304 146.786C338.027 147.778 337.717 148.759 337.376 149.73C336.96 150.903 336.555 151.868 336.16 152.626C335.627 153.628 335.104 154.279 334.592 154.578C334.528 154.62 334.448 154.658 334.352 154.69C334.267 154.732 334.181 154.764 334.096 154.786C334.011 154.807 333.931 154.828 333.856 154.85C333.781 154.871 333.717 154.887 333.664 154.898C333.611 154.908 333.579 154.914 333.568 154.914ZM346.799 152.002H346.399C345.866 152.012 345.103 152.023 344.111 152.034C343.652 152.034 343.039 152.039 342.271 152.05C341.503 152.06 341.071 152.071 340.975 152.082C340.964 152.178 340.959 152.556 340.959 153.218C340.959 153.442 340.879 153.628 340.719 153.778C340.57 153.938 340.383 154.018 340.159 154.018C339.935 154.018 339.743 153.938 339.583 153.778C339.434 153.628 339.359 153.442 339.359 153.218C339.359 152.556 339.375 151.927 339.407 151.33C339.418 151.17 339.471 151.02 339.567 150.882C339.716 150.626 339.946 150.492 340.255 150.482C341.354 148.316 341.903 146.258 341.903 144.306C341.903 144.082 341.978 143.895 342.127 143.746C342.287 143.586 342.479 143.506 342.703 143.506C342.778 143.506 342.852 143.516 342.927 143.538H342.943C343.082 143.527 343.754 143.511 344.959 143.49C345.492 143.479 345.892 143.474 346.159 143.474H346.783C346.815 143.474 346.847 143.479 346.879 143.49C346.911 143.5 346.948 143.511 346.991 143.522C347.14 143.575 347.263 143.666 347.359 143.794C347.434 143.89 347.487 144.002 347.519 144.13C347.519 144.172 347.524 144.22 347.535 144.274C347.546 144.348 347.551 144.439 347.551 144.546V145.234C347.54 145.639 347.519 146.348 347.487 147.362C347.423 149.175 347.391 150.194 347.391 150.418H347.439C347.482 150.428 347.519 150.434 347.551 150.434C347.647 150.444 347.743 150.471 347.839 150.514C348.031 150.61 348.17 150.764 348.255 150.978C348.287 151.042 348.308 151.116 348.319 151.202C348.34 151.298 348.356 151.42 348.367 151.57C348.388 151.794 348.399 152.092 348.399 152.466V153.89C348.399 154.114 348.319 154.3 348.159 154.45C348.01 154.61 347.823 154.69 347.599 154.69C347.375 154.69 347.183 154.61 347.023 154.45C346.874 154.3 346.799 154.114 346.799 153.89V152.002ZM342.047 150.466C342.911 150.444 343.594 150.434 344.095 150.434C344.767 150.423 345.332 150.418 345.791 150.418C345.791 150.108 345.823 149.068 345.887 147.298C345.919 146.306 345.94 145.607 345.951 145.202V145.074C345.674 145.074 345.354 145.079 344.991 145.09C344.372 145.1 343.866 145.111 343.471 145.122C343.354 146.871 342.879 148.652 342.047 150.466ZM356.133 150.738C355.771 151.111 355.36 151.41 354.901 151.634C354.453 151.847 354.011 151.97 353.573 152.002C353.136 152.044 352.688 152.023 352.229 151.938C351.781 151.852 351.371 151.698 350.997 151.474C350.635 151.239 350.299 150.962 349.989 150.642C349.68 150.311 349.445 149.932 349.285 149.506C349.136 149.068 349.051 148.61 349.029 148.13C349.019 147.639 349.12 147.111 349.333 146.546C349.717 145.479 350.325 144.674 351.157 144.13C351.989 143.586 352.864 143.367 353.781 143.474C354.731 143.591 355.515 144.034 356.133 144.802C356.763 145.559 357.077 146.535 357.077 147.73C357.077 148.028 356.949 148.258 356.693 148.418C356.533 148.535 356.352 148.583 356.149 148.562C354.827 148.423 353.029 148.412 350.757 148.53H350.725C350.811 148.967 351.008 149.351 351.317 149.682C351.637 150.002 351.995 150.226 352.389 150.354C352.795 150.482 353.232 150.492 353.701 150.386C354.181 150.268 354.608 150.012 354.981 149.618C355.141 149.458 355.328 149.378 355.541 149.378C355.765 149.378 355.957 149.458 356.117 149.618C356.277 149.767 356.357 149.954 356.357 150.178C356.357 150.391 356.283 150.578 356.133 150.738ZM350.901 146.914C352.725 146.828 354.224 146.823 355.397 146.898C355.28 146.343 355.051 145.911 354.709 145.602C354.379 145.292 354.005 145.116 353.589 145.074C353.077 145.01 352.571 145.132 352.069 145.442C351.568 145.751 351.179 146.242 350.901 146.914ZM368.088 151.97C366.296 152.215 364.84 151.794 363.72 150.706C362.739 149.746 362.205 148.487 362.12 146.93C362.067 145.756 362.301 144.626 362.824 143.538C363.357 142.439 364.147 141.618 365.192 141.074C365.331 140.764 365.565 140.604 365.896 140.594C365.96 140.594 366.061 140.588 366.2 140.578C366.349 140.567 366.467 140.562 366.552 140.562C366.712 140.53 366.877 140.503 367.048 140.482C367.272 140.439 367.469 140.487 367.64 140.626C367.725 140.647 367.805 140.668 367.88 140.69C368.232 140.775 368.579 140.93 368.92 141.154C369.261 141.367 369.528 141.559 369.72 141.73C369.891 141.89 370.115 142.119 370.392 142.418C371.501 143.612 372.141 144.818 372.312 146.034C372.451 146.919 372.365 147.794 372.056 148.658C371.747 149.511 371.24 150.242 370.536 150.85C369.832 151.458 369.016 151.831 368.088 151.97ZM367.864 150.37C368.792 150.242 369.539 149.772 370.104 148.962C370.669 148.14 370.883 147.239 370.744 146.258C370.605 145.383 370.093 144.466 369.208 143.506C368.856 143.122 368.557 142.834 368.312 142.642C368.045 142.439 367.773 142.3 367.496 142.226C367.293 142.183 367.053 142.162 366.776 142.162C365.773 142.439 365 143.02 364.456 143.906C363.912 144.791 363.667 145.767 363.72 146.834C363.784 147.986 364.157 148.892 364.84 149.554C365.587 150.279 366.595 150.551 367.864 150.37ZM381.716 151.746C380.681 150.711 379.897 149.826 379.364 149.09L378.612 147.938C378.26 147.415 377.983 147.026 377.78 146.77C377.151 147.335 376.527 147.858 375.908 148.338C375.951 149.319 376.004 150.268 376.068 151.186C376.079 151.41 376.009 151.607 375.86 151.778C375.721 151.938 375.54 152.023 375.316 152.034C375.103 152.055 374.911 151.996 374.74 151.858C374.58 151.708 374.489 151.527 374.468 151.314C374.404 150.396 374.356 149.447 374.324 148.466C374.153 148.199 374.143 147.927 374.292 147.65C374.26 146.434 374.244 144.306 374.244 141.266C374.244 141.042 374.319 140.855 374.468 140.706C374.628 140.546 374.82 140.466 375.044 140.466C375.268 140.466 375.455 140.546 375.604 140.706C375.764 140.855 375.844 141.042 375.844 141.266C375.844 143.772 375.849 145.452 375.86 146.306C376.447 145.815 377.076 145.239 377.748 144.578L379.316 142.978L381.124 141.058C381.284 140.898 381.471 140.812 381.684 140.802C381.908 140.791 382.1 140.866 382.26 141.026C382.42 141.175 382.505 141.362 382.516 141.586C382.527 141.799 382.457 141.986 382.308 142.146C380.761 143.799 379.636 144.972 378.932 145.666C379.199 145.986 379.535 146.46 379.94 147.09C380.356 147.708 380.601 148.066 380.676 148.162C381.145 148.823 381.865 149.644 382.836 150.626C382.996 150.775 383.076 150.962 383.076 151.186C383.076 151.41 382.996 151.602 382.836 151.762C382.687 151.911 382.5 151.986 382.276 151.986C382.052 151.986 381.865 151.906 381.716 151.746Z" fill="#D7DFDF"/>
</svg>
