<svg width="578" height="595" viewBox="0 0 578 595" fill="none" xmlns="http://www.w3.org/2000/svg">
<g clip-path="url(#clip0_1235_1719)">
<path opacity="0.1" d="M-185.779 299C-185.779 493.404 -14.8014 651 196.11 651C407.022 651 578 493.404 578 299C578 104.596 407.022 -53 196.11 -53C-14.8013 -53 -185.779 104.596 -185.779 299Z" fill="#5D999A" fill-opacity="0.55"/>
<path d="M-194.908 299C-194.908 493.404 -23.9303 651 186.981 651C397.893 651 568.871 493.404 568.871 299C568.871 104.596 397.893 -53 186.982 -53C-23.9302 -53 -194.908 104.596 -194.908 299Z" fill="#5D999A" fill-opacity="0.55"/>
<path opacity="0.6" d="M-200.994 351C-200.994 507.297 -63.3942 634 106.343 634C276.081 634 413.681 507.297 413.681 351C413.681 194.703 276.081 68 106.344 68C-63.3942 68 -200.994 194.703 -200.994 351Z" fill="#62A0A2" fill-opacity="0.55"/>
<path opacity="0.8" d="M-414 484C-414 640.297 -276.627 767 -107.17 767C62.2879 767 199.66 640.297 199.66 484C199.661 327.703 62.2879 201 -107.17 201C-276.627 201 -414 327.703 -414 484Z" fill="#63A6A7" fill-opacity="0.55"/>
</g>
<defs>
<clipPath id="clip0_1235_1719">
<rect width="595" height="578" fill="white" transform="translate(0 595) rotate(-90)"/>
</clipPath>
</defs>
</svg>
