<svg width="16" height="16" viewBox="0 0 16 16" fill="none" xmlns="http://www.w3.org/2000/svg">
<g clip-path="url(#clip0_1_78)">
<path d="M14.1977 10.8618C16.3155 10.6174 16.2491 9.18203 14.1393 8.87668C13.4322 8.77434 13 8.65079 13 8.5C13 7.5 13.5 6 12.5 6C11.9149 6 11.829 5.28676 11.8903 4.64277C11.9307 4.2184 11.9284 3.7852 11.7936 3.38079V3.38079C11.6056 2.81683 11.2013 2.35065 10.6696 2.08479L9.5272 1.5136C9.50919 1.50459 9.49274 1.49274 9.47849 1.47849V1.47849C9.34407 1.34407 9.11802 1.47206 9.16412 1.65649L9.5 3L11.3707 8.14449C11.4567 8.38095 11.5652 8.60862 11.6946 8.82437L12.3797 9.96613C12.7574 10.5956 13.4685 10.9459 14.1977 10.8618V10.8618Z" fill="#F9CFAB"/>
<path fill-rule="evenodd" clip-rule="evenodd" d="M10.2191 0.31179C9.98695 0.71145 9.84577 1.17573 10.2884 1.64C10.4677 1.82806 10.647 1.99602 10.814 2.15247C11.4284 2.72815 11.8767 3.14806 11.5468 3.84C11.4917 3.95571 11.4365 4.0638 11.3842 4.1663C11.0388 4.84331 10.8182 5.27571 11.5468 6.04C11.7925 6.29775 12.0023 6.48 12.176 6.63098C12.5955 6.99549 12.8052 7.17775 12.8052 7.8C12.8052 8.07289 12.7649 8.26116 12.7343 8.40416C12.6661 8.72231 12.6459 8.81645 13.2247 9.12C13.8959 9.472 15.1823 9.85333 15.7416 10C15.7445 9.99696 15.7474 9.99388 15.7503 9.99077C14.8655 13.4459 11.731 16 8 16C3.58172 16 0 12.4183 0 8C0 3.58172 3.58172 0 8 0C8.76996 0 9.5145 0.108774 10.2191 0.31179ZM10 8C10 9.10457 9.10457 10 8 10C6.89543 10 6 9.10457 6 8C6 6.89543 6.89543 6 8 6C9.10457 6 10 6.89543 10 8Z" fill="#F88195"/>
<path fill-rule="evenodd" clip-rule="evenodd" d="M10.2191 0.31179C9.98695 0.71145 9.84577 1.17573 10.2884 1.64C10.4677 1.82806 10.647 1.99602 10.814 2.15247C11.4284 2.72815 11.8767 3.14806 11.5468 3.84C11.4917 3.95571 11.4365 4.0638 11.3842 4.1663C11.0388 4.84331 10.8182 5.27571 11.5468 6.04C11.7925 6.29775 12.0023 6.48 12.176 6.63098C12.5955 6.99549 12.8052 7.17775 12.8052 7.8C12.8052 8.07289 12.7649 8.26116 12.7343 8.40416C12.6661 8.72231 12.6459 8.81645 13.2247 9.12C13.8959 9.472 15.1823 9.85333 15.7416 10C15.7445 9.99696 15.7474 9.99388 15.7503 9.99077C14.8655 13.4459 11.731 16 8 16C3.58172 16 0 12.4183 0 8C0 3.58172 3.58172 0 8 0C8.76996 0 9.5145 0.108774 10.2191 0.31179ZM10 8C10 9.10457 9.10457 10 8 10C6.89543 10 6 9.10457 6 8C6 6.89543 6.89543 6 8 6C9.10457 6 10 6.89543 10 8Z" fill="#F88195"/>
<rect x="7.3494" y="12.0082" width="0.65" height="2.4" rx="0.325" transform="rotate(25 7.3494 12.0082)" fill="#FAD96B" stroke="#F48546" stroke-width="0.15"/>
<rect x="7.69886" y="11.2588" width="0.65" height="3.2269" rx="0.325" transform="rotate(25 7.69886 11.2588)" fill="#FAD96B" stroke="#F48546" stroke-width="0.15"/>
<rect x="9.90814" y="13.0764" width="0.65" height="2.10345" rx="0.325" transform="rotate(-15 9.90814 13.0764)" fill="#F48546" stroke="#F0AD87" stroke-width="0.15"/>
<rect x="1.90814" y="6.07636" width="0.65" height="2.4" rx="0.325" transform="rotate(-15 1.90814 6.07636)" fill="#F48546" stroke="#F0AD87" stroke-width="0.15"/>
<rect x="10.9146" y="8.90033" width="0.65" height="2.00941" rx="0.325" transform="rotate(25 10.9146 8.90033)" fill="#E6FBE6" stroke="white" stroke-width="0.15"/>
<rect x="3.91462" y="2.90033" width="0.65" height="2.4" rx="0.325" transform="rotate(25 3.91462 2.90033)" fill="#E6FBE6" stroke="white" stroke-width="0.15"/>
<rect x="3.57996" y="9.61801" width="0.65" height="1.60812" rx="0.325" transform="rotate(25 3.57996 9.61801)" fill="#E6FBE6" stroke="white" stroke-width="0.15"/>
<rect x="7.54136" y="1.52396" width="0.65" height="2.4" rx="0.325" transform="rotate(-45 7.54136 1.52396)" fill="#FAD96B" stroke="#F48546" stroke-width="0.15"/>
<rect x="6.91829" y="3.97934" width="0.65" height="1.3203" rx="0.325" transform="rotate(-5.38976 6.91829 3.97934)" fill="#F48546" stroke="#F0AB83" stroke-width="0.15"/>
<rect x="-0.0961285" y="8.1262" width="0.65" height="2.4" rx="0.325" transform="rotate(-20 -0.0961285 8.1262)" fill="#FAD96B" stroke="#F48546" stroke-width="0.15"/>
</g>
<defs>
<clipPath id="clip0_1_78">
<rect width="16" height="16" fill="white"/>
</clipPath>
</defs>
</svg>
